<?xml version="1.0" encoding="utf-8"?>
<!-- Generator: Adobe Illustrator 22.1.0, SVG Export Plug-In . SVG Version: 6.00 Build 0)  -->
<svg version="1.1" id="Calque_1" xmlns="http://www.w3.org/2000/svg" xmlns:xlink="http://www.w3.org/1999/xlink" x="0px" y="0px"
	 viewBox="0 0 567 112" style="enable-background:new 0 0 567 112;" xml:space="preserve">
<style type="text/css">
	.st0{fill:none;stroke:#000000;stroke-miterlimit:10;}
</style>
<g>
	<path class="st0" d="M45.3,105.9c-25.5,0-38.2-14-38.2-42c0-13.9,3.5-24.5,10.4-31.9c6.9-7.3,16.9-11,29.8-11
		c9.5,0,18,1.9,25.5,5.6l-6.6,17.3c-3.5-1.4-6.8-2.6-9.8-3.5c-3-0.9-6.1-1.4-9.1-1.4c-11.6,0-17.4,8.3-17.4,24.8
		c0,16,5.8,24,17.4,24c4.3,0,8.3-0.6,11.9-1.7c3.7-1.1,7.3-2.9,11-5.4v19.1c-3.6,2.3-7.3,3.9-10.9,4.8
		C55.6,105.5,50.9,105.9,45.3,105.9z"/>
	<path class="st0" d="M163.6,63.4c0,13.3-3.5,23.8-10.5,31.3c-7,7.5-16.8,11.3-29.4,11.3c-7.9,0-14.8-1.7-20.8-5.2
		S92.3,92.4,89,85.9s-4.8-14-4.8-22.6c0-13.4,3.5-23.8,10.5-31.2c7-7.4,16.8-11.1,29.4-11.1c7.9,0,14.8,1.7,20.8,5.1
		c6,3.4,10.6,8.3,13.8,14.7C162,47.3,163.6,54.8,163.6,63.4z M107,63.4c0,8.1,1.3,14.2,4,18.4c2.7,4.2,7,6.2,13,6.2
		c6,0,10.2-2.1,12.9-6.2c2.6-4.1,3.9-10.3,3.9-18.4c0-8.1-1.3-14.2-4-18.2c-2.6-4.1-7-6.1-13-6.1c-6,0-10.3,2-12.9,6
		S107,55.2,107,63.4z"/>
	<path class="st0" d="M257.6,104.5h-22.3V56.6c0-5.9-1.1-10.3-3.1-13.3c-2.1-3-5.4-4.4-10-4.4c-6.3,0-10.8,2.1-13.5,6.3
		s-4.2,11.1-4.2,20.8v38.5h-22.3V22.6h17.1l3,10.5h1.2c2.5-4,5.9-6.9,10.3-9c4.4-2,9.3-3,14.9-3c9.5,0,16.7,2.6,21.7,7.7
		c4.9,5.2,7.4,12.6,7.4,22.3V104.5z"/>
	<path class="st0" d="M315.1,88.1c3.9,0,8.6-0.9,14.1-2.6v16.6c-5.6,2.5-12.4,3.7-20.5,3.7c-8.9,0-15.4-2.3-19.5-6.8
		c-4.1-4.5-6.1-11.3-6.1-20.3V39.4h-10.7v-9.4l12.3-7.5l6.4-17.3h14.3v17.4h22.9v16.8h-22.9v39.5c0,3.2,0.9,5.5,2.7,7
		C309.8,87.4,312.2,88.1,315.1,88.1z"/>
	<path class="st0" d="M397.7,104.5l-4.3-11.1h-0.6c-3.8,4.7-7.6,8-11.6,9.9c-4,1.8-9.2,2.7-15.6,2.7c-7.9,0-14.1-2.2-18.6-6.7
		c-4.5-4.5-6.8-10.9-6.8-19.2c0-8.7,3-15.1,9.1-19.2c6.1-4.1,15.2-6.4,27.5-6.8l14.2-0.4v-3.6c0-8.3-4.2-12.5-12.7-12.5
		c-6.5,0-14.2,2-23.1,5.9l-7.4-15.1c9.4-4.9,19.9-7.4,31.3-7.4c11,0,19.4,2.4,25.3,7.2c5.9,4.8,8.8,12.1,8.8,21.8v54.6H397.7z
		 M391.2,66.5l-8.6,0.3c-6.5,0.2-11.3,1.4-14.5,3.5c-3.2,2.1-4.8,5.4-4.8,9.8c0,6.3,3.6,9.4,10.8,9.4c5.2,0,9.3-1.5,12.4-4.5
		c3.1-3,4.7-6.9,4.7-11.9V66.5z"/>
	<path class="st0" d="M469.6,105.9c-25.5,0-38.2-14-38.2-42c0-13.9,3.5-24.5,10.4-31.9c6.9-7.3,16.9-11,29.8-11
		c9.5,0,18,1.9,25.5,5.6l-6.6,17.3c-3.5-1.4-6.8-2.6-9.8-3.5c-3-0.9-6.1-1.4-9.1-1.4c-11.6,0-17.4,8.3-17.4,24.8
		c0,16,5.8,24,17.4,24c4.3,0,8.3-0.6,11.9-1.7c3.7-1.1,7.3-2.9,11-5.4v19.1c-3.6,2.3-7.3,3.9-10.9,4.8
		C479.9,105.5,475.2,105.9,469.6,105.9z"/>
	<path class="st0" d="M548,88.1c3.9,0,8.6-0.9,14.1-2.6v16.6c-5.6,2.5-12.4,3.7-20.5,3.7c-8.9,0-15.4-2.3-19.5-6.8
		c-4.1-4.5-6.1-11.3-6.1-20.3V39.4h-10.7v-9.4l12.3-7.5l6.4-17.3h14.3v17.4h22.9v16.8h-22.9v39.5c0,3.2,0.9,5.5,2.7,7
		C542.7,87.4,545,88.1,548,88.1z"/>
</g>
</svg>
