<?xml version="1.0" encoding="utf-8"?>
<!-- Generator: Adobe Illustrator 22.1.0, SVG Export Plug-In . SVG Version: 6.00 Build 0)  -->
<svg version="1.1" id="Calque_1" xmlns="http://www.w3.org/2000/svg" xmlns:xlink="http://www.w3.org/1999/xlink" x="0px" y="0px"
	 viewBox="0 0 565 340" style="enable-background:new 0 0 565 340;" xml:space="preserve">
<style type="text/css">
	.st0{fill:none;stroke:#000000;stroke-miterlimit:10;}
</style>
<g>
	<path class="st0" d="M79.9,119.4c0,11.8-3.4,20.7-10.3,26.8c-6.9,6.1-17.1,9.1-30.7,9.1c-12,0-22.2-1.6-30.6-4.8v-17.9
		c9.9,4.2,20.6,6.3,31.9,6.3c11.5,0,17.2-6.2,17.2-18.6v-1.6l0.7-10h-0.7c-5.2,8.1-13,12.1-23.2,12.1c-9.8,0-17.4-3.8-22.8-11.4
		c-5.4-7.6-8.1-17.9-8.1-30.9c0-13.4,2.8-23.9,8.4-31.4c5.6-7.5,13.3-11.2,23.1-11.2c10.1,0,18,4,23.7,12h0.6L61,37.4h18.9V119.4z
		 M42.3,103.2c6,0,10.3-1.7,12.9-5.2c2.6-3.4,3.9-9,3.9-16.7v-2.7c0-8.7-1.4-15-4.1-18.9c-2.7-3.8-7.1-5.7-13.1-5.7
		c-10.5,0-15.7,8.3-15.7,24.8c0,8.2,1.3,14.3,3.9,18.4C32.7,101.2,36.7,103.2,42.3,103.2z"/>
	<path class="st0" d="M149,35.8c3,0,5.5,0.2,7.5,0.7l-1.7,20.9c-1.8-0.5-4-0.7-6.6-0.7c-7.1,0-12.7,1.8-16.7,5.5
		c-4,3.7-6,8.8-6,15.4v41.7h-22.3V37.4h16.9l3.3,13.8h1.1c2.5-4.6,6-8.3,10.3-11.1C139.2,37.3,143.9,35.8,149,35.8z"/>
	<path class="st0" d="M221.9,119.3l-4.3-11.1H217c-3.8,4.7-7.6,8-11.6,9.9c-4,1.8-9.2,2.7-15.6,2.7c-7.9,0-14.1-2.2-18.6-6.7
		c-4.5-4.5-6.8-10.9-6.8-19.2c0-8.7,3-15.1,9.1-19.2c6.1-4.1,15.2-6.4,27.5-6.8l14.2-0.4v-3.6c0-8.3-4.2-12.5-12.7-12.5
		c-6.5,0-14.2,2-23.1,5.9l-7.4-15.1c9.4-4.9,19.9-7.4,31.3-7.4c11,0,19.4,2.4,25.3,7.2c5.9,4.8,8.8,12.1,8.8,21.8v54.6H221.9z
		 M215.3,81.3l-8.6,0.3c-6.5,0.2-11.3,1.4-14.5,3.5c-3.2,2.1-4.8,5.4-4.8,9.8c0,6.3,3.6,9.4,10.8,9.4c5.2,0,9.3-1.5,12.4-4.5
		c3.1-3,4.7-6.9,4.7-11.9V81.3z"/>
	<path class="st0" d="M305.5,120.7c-9.6,0-17.2-3.5-22.6-10.5h-1.2c0.8,6.8,1.2,10.8,1.2,11.9v33.2h-22.3V37.4h18.2l3.1,10.6h1
		c5.2-8.1,13-12.2,23.2-12.2c9.7,0,17.2,3.7,22.7,11.2c5.5,7.5,8.2,17.8,8.2,31.1c0,8.7-1.3,16.3-3.8,22.8s-6.2,11.4-10.9,14.7
		C317.5,119,311.9,120.7,305.5,120.7z M298.9,53.7c-5.5,0-9.5,1.7-12.1,5.1c-2.5,3.4-3.9,9-4,16.8V78c0,8.8,1.3,15.1,3.9,18.9
		c2.6,3.8,6.7,5.7,12.4,5.7c10,0,15-8.3,15-24.8c0-8.1-1.2-14.1-3.7-18.1C308,55.7,304.2,53.7,298.9,53.7z"/>
	<path class="st0" d="M431,119.3h-22.3V71.4c0-11.8-4.4-17.7-13.2-17.7c-6.3,0-10.8,2.1-13.5,6.4s-4.2,11.1-4.2,20.7v38.5h-22.3V5.3
		h22.3v23.2c0,1.8-0.2,6.1-0.5,12.7l-0.5,6.6h1.2c5-8,12.9-12,23.7-12c9.6,0,16.9,2.6,21.9,7.8c5,5.2,7.5,12.6,7.5,22.3V119.3z"/>
	<path class="st0" d="M453.1,16.2c0-7.3,4.1-10.9,12.2-10.9c8.1,0,12.2,3.6,12.2,10.9c0,3.5-1,6.2-3,8.1c-2,1.9-5.1,2.9-9.1,2.9
		C457.1,27.2,453.1,23.5,453.1,16.2z M476.4,119.3H454V37.4h22.3V119.3z"/>
	<path class="st0" d="M533.1,120.7c-25.5,0-38.2-14-38.2-42c0-13.9,3.5-24.5,10.4-31.9c6.9-7.3,16.9-11,29.8-11
		c9.5,0,18,1.9,25.5,5.6l-6.6,17.3c-3.5-1.4-6.8-2.6-9.8-3.5c-3-0.9-6.1-1.4-9.1-1.4c-11.6,0-17.4,8.3-17.4,24.8
		c0,16,5.8,24,17.4,24c4.3,0,8.3-0.6,11.9-1.7c3.7-1.1,7.3-2.9,11-5.4v19.1c-3.6,2.3-7.3,3.9-10.9,4.8
		C543.3,120.3,538.7,120.7,533.1,120.7z"/>
	<path class="st0" d="M34.3,300.7c-9.6,0-17.2-3.7-22.7-11.2s-8.2-17.8-8.2-31.1c0-13.4,2.8-23.9,8.4-31.4
		c5.6-7.5,13.3-11.2,23.1-11.2c10.3,0,18.2,4,23.6,12h0.7c-1.1-6.1-1.7-11.5-1.7-16.3v-26.2h22.4v114H62.8l-4.3-10.6h-1
		C52.4,296.7,44.7,300.7,34.3,300.7z M42.1,282.9c5.7,0,9.9-1.7,12.6-5c2.7-3.3,4.1-9,4.4-16.9v-2.4c0-8.8-1.4-15.1-4.1-18.9
		s-7.1-5.7-13.2-5.7c-5,0-8.9,2.1-11.6,6.3c-2.8,4.2-4.1,10.4-4.1,18.4s1.4,14.1,4.2,18.1S36.9,282.9,42.1,282.9z"/>
	<path class="st0" d="M140.3,300.7c-13.2,0-23.5-3.6-30.9-10.9c-7.4-7.3-11.1-17.6-11.1-30.9c0-13.7,3.4-24.3,10.3-31.8
		c6.9-7.5,16.3-11.2,28.5-11.2c11.6,0,20.6,3.3,27,9.9s9.7,15.7,9.7,27.3v10.8h-52.8c0.2,6.3,2.1,11.3,5.6,14.9
		c3.5,3.6,8.4,5.3,14.8,5.3c4.9,0,9.6-0.5,14-1.5s9-2.7,13.8-4.9v17.3c-3.9,2-8.1,3.4-12.5,4.4C152.1,300.3,146.7,300.7,140.3,300.7
		z M137.2,231.7c-4.7,0-8.4,1.5-11.1,4.5c-2.7,3-4.2,7.3-4.6,12.8h31.3c-0.1-5.5-1.5-9.8-4.3-12.8S141.9,231.7,137.2,231.7z"/>
	<path class="st0" d="M249,275c0,8.4-2.9,14.8-8.8,19.2c-5.8,4.4-14.6,6.6-26.2,6.6c-6,0-11-0.4-15.2-1.2c-4.2-0.8-8.1-2-11.8-3.6
		v-18.5c4.1,2,8.8,3.6,14,4.9s9.8,2,13.7,2c8.1,0,12.2-2.3,12.2-7c0-1.8-0.5-3.2-1.6-4.3c-1.1-1.1-2.9-2.3-5.6-3.7s-6.2-3-10.5-4.9
		c-6.3-2.6-10.9-5.1-13.9-7.3c-3-2.2-5.1-4.8-6.4-7.7c-1.3-2.9-2-6.5-2-10.7c0-7.3,2.8-12.9,8.5-16.9c5.6-4,13.6-6,24-6
		c9.9,0,19.5,2.1,28.8,6.4l-6.7,16.1c-4.1-1.8-7.9-3.2-11.5-4.3c-3.6-1.1-7.2-1.7-10.9-1.7c-6.6,0-9.9,1.8-9.9,5.3
		c0,2,1.1,3.7,3.2,5.2s6.8,3.6,14,6.5c6.4,2.6,11.1,5,14.1,7.3c3,2.2,5.2,4.8,6.6,7.8C248.3,267.4,249,270.9,249,275z"/>
	<path class="st0" d="M265.5,196.2c0-7.3,4.1-10.9,12.2-10.9c8.1,0,12.2,3.6,12.2,10.9c0,3.5-1,6.2-3,8.1c-2,1.9-5.1,2.9-9.1,2.9
		C269.6,207.2,265.5,203.5,265.5,196.2z M288.8,299.3h-22.3v-81.9h22.3V299.3z"/>
	<path class="st0" d="M383.8,299.4c0,11.8-3.4,20.7-10.3,26.8c-6.9,6.1-17.1,9.1-30.7,9.1c-12,0-22.2-1.6-30.6-4.8v-17.9
		c9.9,4.2,20.6,6.3,31.9,6.3c11.5,0,17.2-6.2,17.2-18.6v-1.6l0.7-10h-0.7c-5.2,8.1-13,12.1-23.2,12.1c-9.8,0-17.4-3.8-22.8-11.4
		c-5.4-7.6-8.1-17.9-8.1-30.9c0-13.4,2.8-23.9,8.4-31.4c5.6-7.5,13.3-11.2,23.1-11.2c10.1,0,18,4,23.7,12h0.6l1.8-10.5h18.9V299.4z
		 M346.1,283.2c6,0,10.3-1.7,12.9-5.2c2.6-3.4,3.9-9,3.9-16.7v-2.7c0-8.7-1.4-15-4.1-18.9c-2.7-3.8-7.1-5.7-13.1-5.7
		c-10.5,0-15.7,8.3-15.7,24.8c0,8.2,1.3,14.3,3.9,18.4C336.6,281.2,340.6,283.2,346.1,283.2z"/>
	<path class="st0" d="M482.7,299.3h-22.3v-47.8c0-5.9-1.1-10.3-3.1-13.3c-2.1-3-5.4-4.4-10-4.4c-6.3,0-10.8,2.1-13.5,6.3
		s-4.2,11.1-4.2,20.8v38.5h-22.3v-81.9h17.1l3,10.5h1.2c2.5-4,5.9-6.9,10.3-9c4.4-2,9.3-3,14.9-3c9.5,0,16.7,2.6,21.7,7.7
		c4.9,5.2,7.4,12.6,7.4,22.3V299.3z"/>
</g>
</svg>
