<?xml version="1.0" encoding="utf-8"?>
<!-- Generator: Adobe Illustrator 22.1.0, SVG Export Plug-In . SVG Version: 6.00 Build 0)  -->
<svg version="1.1" id="Calque_1" xmlns="http://www.w3.org/2000/svg" xmlns:xlink="http://www.w3.org/1999/xlink" x="0px" y="0px"
	 viewBox="0 0 1271 294" style="enable-background:new 0 0 1271 294;" xml:space="preserve">
<style type="text/css">
	.st0{fill:none;stroke:#000000;stroke-miterlimit:10;}
</style>
<g>
	<path d="M18.9,104.6H0V14.1h51.8v15.7h-33v23.3h30.7v15.6H18.9V104.6z"/>
	<path d="M106.6,34.1c2.6,0,4.7,0.2,6.4,0.6l-1.4,17.7c-1.5-0.4-3.4-0.6-5.6-0.6c-6,0-10.7,1.5-14.1,4.6s-5,7.4-5,13v35.2H68V35.4
		h14.3L85.1,47H86c2.1-3.9,5-7,8.7-9.4C98.4,35.3,102.3,34.1,106.6,34.1z"/>
	<path d="M187.2,69.9c0,11.3-3,20.1-8.9,26.4c-5.9,6.4-14.2,9.5-24.8,9.5c-6.6,0-12.5-1.5-17.6-4.4s-9-7.1-11.7-12.5
		s-4.1-11.8-4.1-19c0-11.3,2.9-20.1,8.8-26.3c5.9-6.3,14.2-9.4,24.9-9.4c6.6,0,12.5,1.4,17.6,4.3c5.1,2.9,9,7,11.7,12.4
		C185.8,56.3,187.2,62.6,187.2,69.9z M139.3,69.9c0,6.8,1.1,12,3.4,15.5c2.2,3.5,5.9,5.3,11,5.3c5,0,8.6-1.7,10.9-5.2
		c2.2-3.5,3.3-8.7,3.3-15.6c0-6.8-1.1-12-3.3-15.4s-5.9-5.1-10.9-5.1s-8.7,1.7-10.9,5.1C140.5,57.8,139.3,63,139.3,69.9z"/>
	<path d="M266.6,104.6h-18.9V64.2c0-5-0.9-8.7-2.7-11.2s-4.6-3.7-8.5-3.7c-5.3,0-9.1,1.8-11.4,5.3c-2.4,3.5-3.5,9.4-3.5,17.5v32.5
		h-18.9V35.4h14.4l2.5,8.8h1.1c2.1-3.3,5-5.9,8.7-7.6c3.7-1.7,7.9-2.6,12.6-2.6c8,0,14.1,2.2,18.3,6.5c4.2,4.4,6.2,10.6,6.2,18.8
		L266.6,104.6L266.6,104.6z"/>
	<path d="M315.1,90.8c3.3,0,7.3-0.7,11.9-2.2v14c-4.7,2.1-10.5,3.2-17.3,3.2c-7.5,0-13-1.9-16.5-5.7c-3.4-3.8-5.2-9.5-5.2-17.2V49.6
		h-9v-8l10.4-6.3l5.4-14.6h12.1v14.7h19.4v14.2h-19.4v33.3c0,2.7,0.8,4.7,2.3,5.9C310.6,90.1,312.6,90.8,315.1,90.8z"/>
	<path d="M337.6,74.6V59.2h33.2v15.5L337.6,74.6L337.6,74.6z"/>
	<path d="M418.6,105.8c-11.1,0-19.8-3.1-26.1-9.2c-6.3-6.1-9.4-14.8-9.4-26.1c0-11.6,2.9-20.5,8.7-26.9c5.8-6.3,13.8-9.5,24-9.5
		c9.8,0,17.4,2.8,22.8,8.3c5.4,5.6,8.2,13.3,8.2,23.1v9.2h-44.6c0.2,5.4,1.8,9.5,4.8,12.6c3,3,7.1,4.5,12.5,4.5
		c4.2,0,8.1-0.4,11.8-1.3c3.7-0.9,7.6-2.2,11.6-4.1V101c-3.3,1.6-6.8,2.9-10.6,3.7C428.6,105.4,424,105.8,418.6,105.8z M415.9,47.5
		c-4,0-7.1,1.3-9.4,3.8s-3.6,6.1-3.9,10.8h26.5c-0.1-4.7-1.3-8.3-3.6-10.8C423.1,48.8,419.9,47.5,415.9,47.5z"/>
	<path d="M526,104.6h-18.9V64.2c0-5-0.9-8.7-2.7-11.2c-1.8-2.5-4.6-3.7-8.5-3.7c-5.3,0-9.1,1.8-11.4,5.3C482.2,58,481,63.9,481,72
		v32.5h-18.9V35.4h14.4l2.5,8.8h1.1c2.1-3.3,5-5.9,8.7-7.6c3.7-1.7,7.9-2.6,12.6-2.6c8,0,14.1,2.2,18.3,6.5
		c4.2,4.4,6.2,10.6,6.2,18.8L526,104.6L526,104.6z"/>
	<path d="M567.3,105.8c-8.1,0-14.5-3.2-19.1-9.5s-7-15-7-26.2c0-11.3,2.4-20.2,7.1-26.5c4.7-6.3,11.2-9.5,19.5-9.5
		c8.7,0,15.3,3.4,19.9,10.1h0.6c-0.9-5.2-1.4-9.8-1.4-13.8V8.3h18.9v96.2h-14.5l-3.6-9h-0.8C582.6,102.4,576,105.8,567.3,105.8z
		 M573.9,90.8c4.8,0,8.4-1.4,10.6-4.2c2.2-2.8,3.5-7.6,3.7-14.3v-2c0-7.4-1.1-12.7-3.4-16c-2.3-3.2-6-4.8-11.2-4.8
		c-4.2,0-7.5,1.8-9.8,5.3c-2.3,3.6-3.5,8.8-3.5,15.6s1.2,11.9,3.5,15.3C566.2,89.1,569.5,90.8,573.9,90.8z"/>
	<path d="M680.3,105.8c-8.1,0-14.5-3.2-19.1-9.5s-7-15-7-26.2c0-11.3,2.4-20.2,7.1-26.5c4.7-6.3,11.2-9.5,19.5-9.5
		c8.7,0,15.3,3.4,19.9,10.1h0.6c-0.9-5.2-1.4-9.8-1.4-13.8V8.3h18.9v96.2h-14.5l-3.6-9h-0.8C695.6,102.4,689.1,105.8,680.3,105.8z
		 M686.9,90.8c4.8,0,8.4-1.4,10.6-4.2c2.2-2.8,3.5-7.6,3.7-14.3v-2c0-7.4-1.1-12.7-3.4-16c-2.3-3.2-6-4.8-11.2-4.8
		c-4.2,0-7.5,1.8-9.8,5.3c-2.3,3.6-3.5,8.8-3.5,15.6s1.2,11.9,3.5,15.3C679.2,89.1,682.6,90.8,686.9,90.8z"/>
	<path d="M769.9,105.8c-11.1,0-19.8-3.1-26.1-9.2s-9.4-14.8-9.4-26.1c0-11.6,2.9-20.5,8.7-26.9c5.8-6.3,13.8-9.5,24-9.5
		c9.8,0,17.4,2.8,22.8,8.3c5.4,5.6,8.2,13.3,8.2,23.1v9.2h-44.6c0.2,5.4,1.8,9.5,4.8,12.6c3,3,7.1,4.5,12.5,4.5
		c4.2,0,8.1-0.4,11.8-1.3s7.6-2.2,11.6-4.1V101c-3.3,1.6-6.8,2.9-10.6,3.7C779.9,105.4,775.3,105.8,769.9,105.8z M767.2,47.5
		c-4,0-7.1,1.3-9.4,3.8c-2.3,2.5-3.6,6.1-3.9,10.8h26.5c-0.1-4.7-1.3-8.3-3.6-10.8S771.2,47.5,767.2,47.5z"/>
	<path d="M828.6,104.6l-26.3-69.1H822l13.4,39.4c1.4,4.3,2.2,9,2.7,14.2h0.5c0.2-4.7,1.2-9.4,2.8-14.2l13.3-39.4h19.7L848,104.6
		H828.6z"/>
	<path d="M915.5,105.8c-11.1,0-19.8-3.1-26.1-9.2S880,81.8,880,70.5c0-11.6,2.9-20.5,8.7-26.9c5.8-6.3,13.8-9.5,24-9.5
		c9.8,0,17.4,2.8,22.8,8.3s8.2,13.3,8.2,23.1v9.2h-44.6c0.2,5.4,1.8,9.5,4.8,12.6c3,3,7.1,4.5,12.5,4.5c4.2,0,8.1-0.4,11.8-1.3
		s7.6-2.2,11.6-4.1V101c-3.3,1.6-6.8,2.9-10.6,3.7C925.5,105.4,920.9,105.8,915.5,105.8z M912.9,47.5c-4,0-7.1,1.3-9.4,3.8
		c-2.3,2.5-3.6,6.1-3.9,10.8H926c-0.1-4.7-1.3-8.3-3.6-10.8C920,48.8,916.9,47.5,912.9,47.5z"/>
	<path d="M977.9,104.6H959V8.3h18.9V104.6z"/>
	<path d="M1060.6,69.9c0,11.3-3,20.1-8.9,26.4c-5.9,6.4-14.2,9.5-24.8,9.5c-6.6,0-12.5-1.5-17.6-4.4s-9-7.1-11.7-12.5
		s-4.1-11.8-4.1-19c0-11.3,2.9-20.1,8.8-26.3c5.9-6.3,14.2-9.4,24.9-9.4c6.6,0,12.5,1.4,17.6,4.3c5.1,2.9,9,7,11.7,12.4
		C1059.2,56.3,1060.6,62.6,1060.6,69.9z M1012.8,69.9c0,6.8,1.1,12,3.4,15.5c2.2,3.5,5.9,5.3,11,5.3c5,0,8.6-1.7,10.9-5.2
		c2.2-3.5,3.3-8.7,3.3-15.6c0-6.8-1.1-12-3.3-15.4c-2.2-3.4-5.9-5.1-10.9-5.1s-8.7,1.7-10.9,5.1C1013.9,57.8,1012.8,63,1012.8,69.9z
		"/>
	<path d="M1114.1,105.8c-8.1,0-14.5-2.9-19.1-8.8h-1c0.7,5.8,1,9.1,1,10v28h-18.9V35.4h15.3l2.7,9h0.9c4.4-6.8,10.9-10.3,19.6-10.3
		c8.2,0,14.6,3.2,19.2,9.5s6.9,15.1,6.9,26.3c0,7.4-1.1,13.8-3.2,19.2c-2.2,5.4-5.2,9.6-9.2,12.4
		C1124.2,104.4,1119.5,105.8,1114.1,105.8z M1108.6,49.2c-4.7,0-8.1,1.4-10.2,4.3c-2.1,2.9-3.3,7.6-3.3,14.2v2
		c0,7.4,1.1,12.7,3.3,16c2.2,3.2,5.7,4.8,10.5,4.8c8.5,0,12.7-7,12.7-20.9c0-6.8-1-11.9-3.1-15.3C1116.3,50.9,1113,49.2,1108.6,49.2
		z"/>
	<path d="M1187.6,105.8c-11.1,0-19.8-3.1-26.1-9.2c-6.3-6.1-9.4-14.8-9.4-26.1c0-11.6,2.9-20.5,8.7-26.9c5.8-6.3,13.8-9.5,24-9.5
		c9.8,0,17.4,2.8,22.8,8.3c5.4,5.6,8.2,13.3,8.2,23.1v9.2h-44.6c0.2,5.4,1.8,9.5,4.8,12.6c3,3,7.1,4.5,12.5,4.5
		c4.2,0,8.1-0.4,11.8-1.3c3.7-0.9,7.6-2.2,11.6-4.1V101c-3.3,1.6-6.8,2.9-10.6,3.7C1197.6,105.4,1193,105.8,1187.6,105.8z
		 M1184.9,47.5c-4,0-7.1,1.3-9.4,3.8s-3.6,6.1-3.9,10.8h26.5c-0.1-4.7-1.3-8.3-3.6-10.8S1188.9,47.5,1184.9,47.5z"/>
	<path d="M1269.7,34.1c2.6,0,4.7,0.2,6.4,0.6l-1.4,17.7c-1.5-0.4-3.4-0.6-5.6-0.6c-6,0-10.7,1.5-14.1,4.6s-5,7.4-5,13v35.2h-18.9
		V35.4h14.3l2.8,11.6h0.9c2.1-3.9,5-7,8.7-9.4C1261.5,35.3,1265.4,34.1,1269.7,34.1z"/>
	<path d="M132,256.6h-23.3l-7.1-7c-7.9,5.5-16.8,8.2-26.7,8.2c-10.1,0-18-2.3-23.9-6.9c-5.9-4.6-8.8-10.9-8.8-18.7
		c0-5.6,1.2-10.5,3.7-14.4c2.5-4,6.8-7.7,12.8-11.2c-3.1-3.5-5.3-6.9-6.7-10.2c-1.4-3.2-2.1-6.8-2.1-10.6c0-6.3,2.4-11.3,7.2-15.2
		c4.8-3.8,11.2-5.8,19.3-5.8c7.7,0,13.8,1.8,18.4,5.3c4.6,3.6,6.9,8.3,6.9,14.3c0,4.9-1.4,9.4-4.3,13.5c-2.8,4.1-7.4,7.9-13.8,11.6
		l17.6,17.1c2.9-4.8,5.5-11,7.6-18.6h19.7c-1.5,5.6-3.5,11-6.1,16.3s-5.5,10-8.8,14.1L132,256.6z M62,230.3c0,3.5,1.3,6.4,4,8.5
		c2.7,2.1,6,3.2,10.2,3.2c5.2,0,9.9-1.3,14-3.8l-20.5-20.4c-2.4,1.8-4.3,3.7-5.7,5.7C62.7,225.4,62,227.7,62,230.3z M84.2,186.5
		c0-2.2-0.7-3.9-2.2-5.2s-3.4-1.9-5.8-1.9c-2.8,0-4.9,0.7-6.5,2s-2.4,3.2-2.4,5.6c0,3.6,2,7.6,5.9,12c3.5-2,6.3-3.9,8.2-5.8
		C83.2,191.3,84.2,189,84.2,186.5z"/>
	<path class="st0" d="M235.3,256.7c0,9.9-2.9,17.5-8.7,22.6s-14.4,7.7-25.9,7.7c-10.1,0-18.7-1.4-25.9-4.1v-15.1
		c8.4,3.5,17.4,5.3,27,5.3c9.7,0,14.5-5.2,14.5-15.7V256l0.6-8.5h-0.6c-4.4,6.8-10.9,10.2-19.6,10.2c-8.3,0-14.7-3.2-19.3-9.6
		c-4.6-6.4-6.8-15.1-6.8-26.1c0-11.3,2.4-20.2,7.1-26.5c4.7-6.3,11.2-9.5,19.5-9.5c8.5,0,15.2,3.4,20,10.1h0.5l1.5-8.8h16
		L235.3,256.7L235.3,256.7z M203.5,243c5.1,0,8.7-1.5,10.9-4.4s3.3-7.6,3.3-14.1v-2.3c0-7.4-1.1-12.7-3.4-15.9
		c-2.3-3.2-6-4.9-11-4.9c-8.9,0-13.3,7-13.3,20.9c0,6.9,1.1,12.1,3.3,15.5C195.4,241.3,198.8,243,203.5,243z"/>
	<path class="st0" d="M293.6,186.1c2.6,0,4.7,0.2,6.4,0.6l-1.4,17.7c-1.5-0.4-3.4-0.6-5.6-0.6c-6,0-10.7,1.5-14.1,4.6s-5,7.4-5,13
		v35.2H255v-69.1h14.3l2.8,11.6h0.9c2.1-3.9,5-7,8.7-9.4C285.3,187.3,289.3,186.1,293.6,186.1z"/>
	<path class="st0" d="M355.2,256.6l-3.6-9.4H351c-3.2,4-6.4,6.8-9.8,8.3c-3.4,1.5-7.7,2.3-13.1,2.3c-6.6,0-11.9-1.9-15.7-5.7
		c-3.8-3.8-5.7-9.2-5.7-16.2c0-7.3,2.6-12.8,7.7-16.2c5.1-3.5,12.9-5.4,23.2-5.8l12-0.4v-3c0-7-3.6-10.5-10.8-10.5
		c-5.5,0-12,1.7-19.5,5l-6.2-12.7c8-4.2,16.8-6.2,26.5-6.2c9.3,0,16.4,2,21.3,6.1c4.9,4,7.4,10.2,7.4,18.4v46.1h-13.1V256.6z
		 M349.6,224.5l-7.3,0.2c-5.5,0.2-9.6,1.2-12.2,3c-2.7,1.8-4,4.6-4,8.3c0,5.3,3.1,8,9.2,8c4.4,0,7.9-1.3,10.5-3.8s3.9-5.9,3.9-10
		v-5.7H349.6z"/>
	<path class="st0" d="M425.8,257.8c-8.1,0-14.5-2.9-19.1-8.8h-1c0.7,5.8,1,9.1,1,10v28h-18.9v-99.6h15.3l2.7,9h0.9
		c4.4-6.8,10.9-10.3,19.6-10.3c8.2,0,14.6,3.2,19.2,9.5s6.9,15.1,6.9,26.3c0,7.4-1.1,13.8-3.2,19.2c-2.2,5.4-5.2,9.6-9.2,12.4
		C435.9,256.4,431.2,257.8,425.8,257.8z M420.2,201.2c-4.7,0-8.1,1.4-10.2,4.3c-2.1,2.9-3.3,7.6-3.3,14.2v2c0,7.4,1.1,12.7,3.3,16
		c2.2,3.2,5.7,4.8,10.5,4.8c8.5,0,12.7-7,12.7-20.9c0-6.8-1-11.9-3.1-15.3C427.9,202.9,424.6,201.2,420.2,201.2z"/>
	<path class="st0" d="M531.8,256.6h-18.9v-40.4c0-10-3.7-15-11.1-15c-5.3,0-9.1,1.8-11.4,5.4c-2.4,3.6-3.5,9.4-3.5,17.4v32.5H468
		v-96.2h18.9v19.6c0,1.5-0.1,5.1-0.4,10.8l-0.4,5.6h1c4.2-6.8,10.9-10.1,20-10.1c8.1,0,14.3,2.2,18.5,6.6c4.2,4.4,6.3,10.6,6.3,18.8
		L531.8,256.6L531.8,256.6z"/>
	<path class="st0" d="M550.4,169.5c0-6.1,3.4-9.2,10.3-9.2c6.8,0,10.3,3.1,10.3,9.2c0,2.9-0.9,5.2-2.6,6.8c-1.7,1.6-4.3,2.4-7.7,2.4
		C553.8,178.8,550.4,175.7,550.4,169.5z M570,256.6h-18.9v-69.1H570V256.6z"/>
	<path class="st0" d="M617.9,257.8c-21.5,0-32.3-11.8-32.3-35.4c0-11.8,2.9-20.7,8.8-26.9c5.9-6.2,14.2-9.3,25.2-9.3
		c8,0,15.2,1.6,21.5,4.7l-5.6,14.6c-3-1.2-5.7-2.2-8.3-2.9c-2.6-0.8-5.1-1.1-7.7-1.1c-9.8,0-14.7,7-14.7,20.9
		c0,13.5,4.9,20.3,14.7,20.3c3.6,0,7-0.5,10.1-1.5s6.2-2.5,9.3-4.5v16.1c-3.1,1.9-6.1,3.3-9.2,4
		C626.6,257.4,622.7,257.8,617.9,257.8z"/>
	<path class="st0" d="M709.8,257.8c-8.1,0-14.5-3.2-19.1-9.5s-7-15-7-26.2c0-11.3,2.4-20.2,7.1-26.5c4.7-6.3,11.2-9.5,19.5-9.5
		c8.7,0,15.3,3.4,19.9,10.1h0.6c-0.9-5.2-1.4-9.8-1.4-13.8v-22.1h18.9v96.2h-14.5l-3.6-9h-0.8C725.1,254.4,718.5,257.8,709.8,257.8z
		 M716.4,242.8c4.8,0,8.4-1.4,10.6-4.2c2.2-2.8,3.5-7.6,3.7-14.3v-2c0-7.4-1.1-12.7-3.4-16c-2.3-3.2-6-4.8-11.2-4.8
		c-4.2,0-7.5,1.8-9.8,5.3c-2.3,3.6-3.5,8.8-3.5,15.6s1.2,11.9,3.5,15.3C708.6,241.1,712,242.8,716.4,242.8z"/>
	<path class="st0" d="M799.3,257.8c-11.1,0-19.8-3.1-26.1-9.2c-6.3-6.1-9.4-14.8-9.4-26.1c0-11.6,2.9-20.5,8.7-26.9
		c5.8-6.3,13.8-9.5,24-9.5c9.8,0,17.4,2.8,22.8,8.3s8.2,13.3,8.2,23.1v9.2h-44.6c0.2,5.4,1.8,9.5,4.8,12.6c3,3,7.1,4.5,12.5,4.5
		c4.2,0,8.1-0.4,11.8-1.3c3.7-0.9,7.6-2.2,11.6-4.1V253c-3.3,1.6-6.8,2.9-10.6,3.7C809.3,257.4,804.7,257.8,799.3,257.8z
		 M796.7,199.5c-4,0-7.1,1.3-9.4,3.8c-2.3,2.5-3.6,6.1-3.9,10.8h26.5c-0.1-4.7-1.3-8.3-3.6-10.8
		C803.8,200.8,800.7,199.5,796.7,199.5z"/>
	<path class="st0" d="M891.1,236c0,7.1-2.5,12.5-7.4,16.2s-12.3,5.6-22.1,5.6c-5,0-9.3-0.3-12.9-1c-3.5-0.7-6.9-1.7-10-3v-15.6
		c3.5,1.6,7.5,3,11.8,4.1c4.4,1.1,8.3,1.7,11.6,1.7c6.8,0,10.3-2,10.3-5.9c0-1.5-0.5-2.7-1.4-3.6c-0.9-0.9-2.5-2-4.7-3.2
		s-5.2-2.5-8.9-4.1c-5.3-2.2-9.2-4.3-11.7-6.2s-4.3-4.1-5.4-6.5c-1.1-2.5-1.7-5.5-1.7-9.1c0-6.1,2.4-10.9,7.1-14.3
		c4.8-3.4,11.5-5,20.3-5c8.3,0,16.4,1.8,24.3,5.4l-5.7,13.6c-3.5-1.5-6.7-2.7-9.7-3.6c-3-0.9-6.1-1.4-9.2-1.4
		c-5.6,0-8.3,1.5-8.3,4.5c0,1.7,0.9,3.2,2.7,4.4s5.7,3.1,11.8,5.5c5.4,2.2,9.4,4.2,11.9,6.1c2.5,1.9,4.4,4.1,5.6,6.6
		C890.5,229.6,891.1,232.6,891.1,236z"/>
	<path class="st0" d="M905,169.5c0-6.1,3.4-9.2,10.3-9.2c6.8,0,10.3,3.1,10.3,9.2c0,2.9-0.9,5.2-2.6,6.8c-1.7,1.6-4.3,2.4-7.7,2.4
		C908.4,178.8,905,175.7,905,169.5z M924.7,256.6h-18.9v-69.1h18.9V256.6z"/>
	<path class="st0" d="M1004.9,256.7c0,9.9-2.9,17.5-8.7,22.6s-14.4,7.7-25.9,7.7c-10.1,0-18.7-1.4-25.9-4.1v-15.1
		c8.4,3.5,17.4,5.3,27,5.3c9.7,0,14.5-5.2,14.5-15.7V256l0.6-8.5H986c-4.4,6.8-10.9,10.2-19.6,10.2c-8.3,0-14.7-3.2-19.3-9.6
		c-4.6-6.4-6.8-15.1-6.8-26.1c0-11.3,2.4-20.2,7.1-26.5c4.7-6.3,11.2-9.5,19.5-9.5c8.5,0,15.2,3.4,20,10.1h0.5l1.5-8.8h16V256.7z
		 M973.1,243c5.1,0,8.7-1.5,10.9-4.4s3.3-7.6,3.3-14.1v-2.3c0-7.4-1.1-12.7-3.4-15.9c-2.3-3.2-6-4.9-11-4.9c-8.9,0-13.3,7-13.3,20.9
		c0,6.9,1.1,12.1,3.3,15.5C965,241.3,968.4,243,973.1,243z"/>
	<path class="st0" d="M1088.5,256.6h-18.9v-40.4c0-5-0.9-8.7-2.7-11.2c-1.8-2.5-4.6-3.7-8.5-3.7c-5.3,0-9.1,1.8-11.4,5.3
		c-2.4,3.5-3.5,9.4-3.5,17.5v32.5h-18.9v-69.1h14.4l2.5,8.8h1.1c2.1-3.3,5-5.9,8.7-7.6c3.7-1.7,7.9-2.6,12.6-2.6
		c8,0,14.1,2.2,18.3,6.5c4.2,4.4,6.2,10.6,6.2,18.8v45.2H1088.5z"/>
	<path class="st0" d="M1139.2,257.8c-11.1,0-19.8-3.1-26.1-9.2c-6.3-6.1-9.4-14.8-9.4-26.1c0-11.6,2.9-20.5,8.7-26.9
		c5.8-6.3,13.8-9.5,24-9.5c9.8,0,17.4,2.8,22.8,8.3c5.4,5.6,8.2,13.3,8.2,23.1v9.2h-44.6c0.2,5.4,1.8,9.5,4.8,12.6
		c3,3,7.1,4.5,12.5,4.5c4.2,0,8.1-0.4,11.8-1.3c3.7-0.9,7.6-2.2,11.6-4.1V253c-3.3,1.6-6.8,2.9-10.6,3.7
		C1149.1,257.4,1144.6,257.8,1139.2,257.8z M1136.5,199.5c-4,0-7.1,1.3-9.4,3.8s-3.6,6.1-3.9,10.8h26.5c-0.1-4.7-1.3-8.3-3.6-10.8
		C1143.7,200.8,1140.5,199.5,1136.5,199.5z"/>
	<path class="st0" d="M1221.3,186.1c2.6,0,4.7,0.2,6.4,0.6l-1.4,17.7c-1.5-0.4-3.4-0.6-5.6-0.6c-6,0-10.7,1.5-14.1,4.6s-5,7.4-5,13
		v35.2h-18.9v-69.1h14.3l2.8,11.6h0.9c2.1-3.9,5-7,8.7-9.4C1213,187.3,1217,186.1,1221.3,186.1z"/>
</g>
</svg>
