<?xml version="1.0" encoding="utf-8"?>
<!-- Generator: Adobe Illustrator 22.1.0, SVG Export Plug-In . SVG Version: 6.00 Build 0)  -->
<svg version="1.1" id="Calque_1" xmlns="http://www.w3.org/2000/svg" xmlns:xlink="http://www.w3.org/1999/xlink" x="0px" y="0px"
	 viewBox="0 0 218.6 220.7" style="enable-background:new 0 0 218.6 220.7;" xml:space="preserve">
<style type="text/css">
	.st0{fill:#FF5555;}
</style>
<path class="st0" d="M203.9,218.7c-63,0-126.1,0-189.1,0c-0.3-0.1-0.6-0.3-0.9-0.3c-6.6-0.9-11.9-5.6-13.4-12.1
	c-0.2-0.7-0.3-1.3-0.5-1.9C0,141,0,77.7,0,14.3c0.1-0.2,0.3-0.4,0.3-0.6C1.4,6.9,5.9,2.1,12.6,0.5c0.7-0.2,1.5-0.3,2.2-0.5
	c63,0,126.1,0,189.1,0c0.3,0.1,0.6,0.3,0.9,0.3c8,1,13.8,7.6,13.8,15.7c0,62.3,0,124.5,0,186.8c0,7.6-5,13.8-12.4,15.5
	C205.5,218.3,204.7,218.5,203.9,218.7z M116.5,95.9c0-0.4,0-0.8,0-1.2c0-3.8,0-7.7,0-11.5c0-1.1-0.3-1.4-1.3-1.4
	c-9.6,0-19.1,0-28.7,0c-1.2,0-1.5,0.4-1.5,1.5c0,33.9,0,67.8,0,101.7c0,1.3,0.4,1.5,1.6,1.5c9.8,0,19.6,0,29.4,0
	c1.9,0,1.9,0,1.9-1.9c0-16.2,0-32.3,0-48.5c0-4.8,0.1-9.6,1.3-14.3c1.4-5.5,4.2-10,9.7-12.2c3.2-1.3,6.5-1.5,9.9-1.3
	c5.8,0.3,10.2,3,12.6,8.4c1.8,4,2.3,8.3,2.4,12.7c0.1,18.5,0,36.9,0.1,55.4c0,1.8,0,1.8,1.7,1.8c9.8,0,19.5,0,29.3,0
	c1.9,0,1.9,0,1.9-1.9c0-16,0.1-32.1,0-48.1c0-6.9-0.3-13.7-0.7-20.6c-0.3-5.2-1.4-10.3-3.1-15.3c-3.2-8.9-8.9-15.4-17.8-18.6
	c-8.2-3-16.7-3.6-25.3-2c-7.4,1.4-13.8,4.8-18.9,10.4C119.3,92,118,93.9,116.5,95.9z M32.2,134.1c0,16.9,0,33.9,0,50.8
	c0,1.6,0,1.6,1.6,1.6c9.9,0,19.8,0,29.8,0c1.6,0,1.6,0,1.6-1.6c0-33.9,0-67.7,0-101.6c0-1.2-0.3-1.6-1.6-1.6c-9.9,0.1-19.8,0-29.8,0
	c-1.6,0-1.6,0-1.6,1.7C32.2,100.3,32.2,117.2,32.2,134.1z M48.6,67.8c10.6,0,19-8.4,19.1-18.9c0-9.8-7.6-19.1-19-19.1
	c-10.8,0-19,8.4-19,19C29.7,60,38.7,68,48.6,67.8z"/>
</svg>
