<?xml version="1.0" encoding="utf-8"?>
<!-- Generator: Adobe Illustrator 22.1.0, SVG Export Plug-In . SVG Version: 6.00 Build 0)  -->
<svg version="1.1" id="Calque_1" xmlns="http://www.w3.org/2000/svg" xmlns:xlink="http://www.w3.org/1999/xlink" x="0px" y="0px"
	 viewBox="0 0 624.4 391.5" style="enable-background:new 0 0 624.4 391.5;" xml:space="preserve">
<style type="text/css">
	.st0{fill:#FF5555;}
</style>
<path class="st0" d="M-1.6,0.9C0.6,1,2.7,1.2,4.9,1.2c59.3,0,118.6-0.1,177.9,0.1c21.9,0.1,43.6,2.4,64.1,10.8
	c24.8,10.2,43.3,27,51.9,52.7c9.4,27.9,9.5,56-3.9,83c-6.5,13.1-17.2,22.3-29.7,29.5c-2.1,1.2-4.2,2.5-7.2,4.2
	c5.7,2.8,10.8,5.1,15.6,7.8c26.7,15.1,39.5,39.2,43,68.7c3.3,27.6-1.8,53.8-16.6,77.6c-12.4,19.9-29.1,34.9-51.2,43.5
	c-25.3,9.9-51.9,11.3-78.6,11.4c-55.1,0.2-110.3,0-165.4,0.1c-2.2,0-4.3,0.2-6.5,0.3C-1.6,260.9-1.6,130.9-1.6,0.9z M88.1,270.9
	c0,15.7,0.1,31.3-0.1,47c-0.1,4.3,1.3,5.3,5.4,5.2c10.7-0.3,21.3,0,32-0.1c21.3-0.3,42.6-0.2,63.9-1.3c13.1-0.7,25.1-5.4,34-15.7
	c11.9-13.8,13.4-30.3,11.5-47.5c-2.1-18-12.5-29.7-29.5-34.5c-10.4-2.9-21.6-4.4-32.4-4.7c-26.6-0.7-53.3-0.2-79.9-0.3
	c-3.8,0-4.8,1.2-4.8,4.9C88.2,239.6,88.1,255.2,88.1,270.9z M133.9,154.9c8.8,0,17.7,0.4,26.5-0.1c11.4-0.6,22.9-1.1,34.2-3
	c10.5-1.8,20.2-6.2,26.4-15.5c6.6-9.9,7.7-21.2,6.3-32.6c-1.9-15.1-9.3-26.5-25.1-29.8c-10.9-2.3-21.9-4.3-33-4.6
	c-25.5-0.7-50.9-0.2-76.4-0.5c-3.9,0-4.7,1.3-4.7,4.9c0.1,25.5,0.1,50.9,0,76.4c0,3.7,1.2,4.9,4.9,4.9
	C106.6,154.8,120.2,154.9,133.9,154.9z"/>
<path class="st0" d="M624.4,259.9c-1.3-0.1-2.6-0.3-4-0.3c-64.7,0-129.3,0-194,0c-1.5,0-3,0-5.4,0c0.6,5.4,0.9,10.3,1.7,15.1
	c5.1,31.1,27.2,51.2,58.7,53.6c13.1,1,25.9,0.4,38.1-5.2c9.5-4.4,17.4-10.6,22.4-19.9c2.5-4.7,5.7-6.4,11-6.3
	c20.3,0.3,40.7,0.1,61,0.1c1.8,0,3.6,0,6.4,0c-1,4.5-1.4,8.4-2.7,12c-7.9,21.4-21.8,38.3-39.7,52.1c-26.3,20.2-56.8,26.7-89.1,26.9
	c-36.7,0.2-69.5-11-98.1-33.9c-19.8-15.9-31.6-37.1-37.3-61.7c-8.4-36.5-8.1-73.1,2.2-109.2c7.7-26.9,23-48.9,45.7-65.5
	c27-19.8,57.8-26.5,90.5-25.4c24.6,0.8,48.2,5.9,69.8,18.4c17.1,9.9,30.2,23.8,40.6,40.4c13.3,21.1,19.2,44.4,20.9,69
	c0.1,1.6,0.7,3.2,1,4.8C624.4,236.6,624.4,248.2,624.4,259.9z M547.9,211.2c0-32.1-22.2-58.4-61.8-59c-40.6-0.6-59.1,28-62.3,59
	C465.1,211.2,506.5,211.2,547.9,211.2z"/>
<path class="st0" d="M407.4,56.1c0-13.2,0-25.6,0-38.4c52,0,103.9,0,156.3,0c0,12.1,0.1,23.9-0.1,35.7c0,0.9-1.6,2-2.7,2.6
	c-0.8,0.4-2,0.1-3,0.1c-48.5,0-96.9,0-145.4,0C411,56.1,409.5,56.1,407.4,56.1z"/>
</svg>
