<?xml version="1.0" encoding="utf-8"?>
<!-- Generator: Adobe Illustrator 22.1.0, SVG Export Plug-In . SVG Version: 6.00 Build 0)  -->
<svg version="1.1" id="Calque_1" xmlns="http://www.w3.org/2000/svg" xmlns:xlink="http://www.w3.org/1999/xlink" x="0px" y="0px"
	 viewBox="0 0 482 120" style="enable-background:new 0 0 482 120;" xml:space="preserve">
<style type="text/css">
	.st0{fill:none;stroke:#000000;stroke-miterlimit:10;}
</style>
<g>
	<path class="st0" d="M29.5,72.4v41.1H6.8V6.4H38c14.5,0,25.3,2.6,32.3,7.9c7,5.3,10.5,13.3,10.5,24.1c0,6.3-1.7,11.9-5.2,16.8
		c-3.5,4.9-8.4,8.8-14.7,11.5l31.5,46.7H67.2L41.6,72.4H29.5z M29.5,53.9h7.3c7.2,0,12.5-1.2,15.9-3.6c3.4-2.4,5.1-6.2,5.1-11.3
		c0-5.1-1.7-8.7-5.2-10.8c-3.5-2.1-8.9-3.2-16.2-3.2h-6.9V53.9z"/>
	<path class="st0" d="M141.1,114.9c-13.2,0-23.5-3.6-30.9-10.9c-7.4-7.3-11.1-17.6-11.1-30.9c0-13.7,3.4-24.3,10.3-31.8
		c6.9-7.5,16.3-11.2,28.5-11.2c11.6,0,20.6,3.3,27,9.9s9.7,15.7,9.7,27.3v10.8h-52.8c0.2,6.3,2.1,11.3,5.6,14.9
		c3.5,3.6,8.4,5.3,14.8,5.3c4.9,0,9.6-0.5,14-1.5s9-2.7,13.8-4.9v17.3c-3.9,2-8.1,3.4-12.5,4.4C153,114.5,147.5,114.9,141.1,114.9z
		 M138,45.9c-4.7,0-8.4,1.5-11.1,4.5c-2.7,3-4.2,7.3-4.6,12.8h31.3c-0.1-5.5-1.5-9.8-4.3-12.8S142.7,45.9,138,45.9z"/>
	<path class="st0" d="M188.7,78V59.7h39.3V78H188.7z"/>
	<path class="st0" d="M314.9,113.5L307.1,88h-39l-7.8,25.5h-24.5L273.6,6h27.8l37.9,107.5H314.9z M301.7,68.9
		c-7.2-23.1-11.2-36.2-12.1-39.2c-0.9-3-1.6-5.4-1.9-7.2c-1.6,6.3-6.2,21.7-13.8,46.4H301.7z"/>
	<path class="st0" d="M384.3,114.9c-25.5,0-38.2-14-38.2-42c0-13.9,3.5-24.5,10.4-31.9c6.9-7.3,16.9-11,29.8-11
		c9.5,0,18,1.9,25.5,5.6l-6.6,17.3c-3.5-1.4-6.8-2.6-9.8-3.5c-3-0.9-6.1-1.4-9.1-1.4c-11.6,0-17.4,8.3-17.4,24.8
		c0,16,5.8,24,17.4,24c4.3,0,8.3-0.6,11.9-1.7c3.7-1.1,7.3-2.9,11-5.4v19.1c-3.6,2.3-7.3,3.9-11,4.8
		C394.6,114.5,389.9,114.9,384.3,114.9z"/>
	<path class="st0" d="M462.7,97.1c3.9,0,8.6-0.9,14.1-2.6v16.6c-5.6,2.5-12.4,3.7-20.5,3.7c-8.9,0-15.4-2.3-19.5-6.8
		c-4.1-4.5-6.1-11.3-6.1-20.3V48.4h-10.7v-9.4l12.3-7.5l6.4-17.3h14.3v17.4h22.9v16.8h-22.9v39.5c0,3.2,0.9,5.5,2.7,7
		C457.4,96.4,459.7,97.1,462.7,97.1z"/>
</g>
</svg>
